<svg width="25" height="25" viewBox="0 0 25 25" fill="none" xmlns="http://www.w3.org/2000/svg">
<g clip-path="url(#clip0_121_962)">
<rect x="0.817032" y="0.208252" width="24" height="24" rx="5" fill="#FF3E3E"/>
<path d="M18.4699 7.81485C18.3839 7.49233 18.3266 7.31315 18.3266 7.31315C18.2334 6.97989 17.9969 6.97989 17.6457 6.92255L15.7428 6.68245C15.5063 6.64304 15.5063 6.64304 15.4131 6.43877C15.1014 5.7364 15.0046 5.32788 14.6642 5.32788H10.9732C10.6327 5.32788 10.5395 5.7364 10.2278 6.44236C10.1346 6.64304 10.1346 6.64304 9.8981 6.68604L7.99166 6.92613C7.64406 6.98347 7.39321 7.01572 7.30004 7.34899C7.30004 7.34899 7.25704 7.49591 7.16745 7.81485C7.05278 8.24129 7.00619 8.1947 7.40038 8.1947H18.237C18.6312 8.19829 18.5882 8.24129 18.4699 7.81485ZM17.2407 9.34143H8.3966C7.80174 9.34143 7.77307 9.42027 7.8089 9.86821L8.47902 18.5618C8.53636 19.0026 8.57936 19.0922 9.10614 19.0922H16.5312C17.058 19.0922 17.101 19.0026 17.1583 18.5618L17.8284 9.86821C17.8643 9.41668 17.8356 9.34143 17.2407 9.34143Z" fill="white"/>
</g>
<defs>
<clipPath id="clip0_121_962">
<rect width="24" height="24" fill="white" transform="translate(0.817032 0.208252)"/>
</clipPath>
</defs>
</svg>
