<svg width="33" height="33" viewBox="0 0 33 33" fill="none" xmlns="http://www.w3.org/2000/svg">
<path d="M12.8998 3.9126H6.89978C5.24548 3.9126 3.89978 5.2583 3.89978 6.9126V12.9126C3.89978 14.5669 5.24548 15.9126 6.89978 15.9126H12.8998C14.5541 15.9126 15.8998 14.5669 15.8998 12.9126V6.9126C15.8998 5.2583 14.5541 3.9126 12.8998 3.9126Z" fill="#70B7E8"/>
<rect x="3.89978" y="7.84595" width="12" height="4.1333" fill="#255FDC"/>
<path d="M3.89978 11.7793H15.8998V12.9126C15.8998 14.5695 14.5566 15.9126 12.8998 15.9126H6.89978C5.24293 15.9126 3.89978 14.5695 3.89978 12.9126V11.7793Z" fill="#FF0000"/>
<path d="M3.89978 6.9126C3.89978 5.25574 5.24293 3.9126 6.89978 3.9126H12.8998C14.5566 3.9126 15.8998 5.25574 15.8998 6.9126V8.0459H3.89978V6.9126Z" fill="white"/>
<path d="M26.8998 17.9126H20.8998C19.2455 17.9126 17.8998 19.2583 17.8998 20.9126V26.9126C17.8998 28.5669 19.2455 29.9126 20.8998 29.9126H26.8998C28.5541 29.9126 29.8998 28.5669 29.8998 26.9126V20.9126C29.8998 19.2583 28.5541 17.9126 26.8998 17.9126Z" fill="#3EA6EB"/>
<circle cx="23.8998" cy="23.9127" r="2.25421" fill="#FACC00"/>
<path d="M21.8392 13.2652C22.0345 13.4604 22.351 13.4604 22.5463 13.2651L23.2533 12.5581C23.4486 12.3628 23.4486 12.0462 23.2532 11.8509L21.3142 9.91256H24.8998C25.4521 9.91256 25.8998 10.3603 25.8998 10.9126V15.4126C25.8998 15.6887 26.1237 15.9126 26.3998 15.9126H27.3998C27.6759 15.9126 27.8998 15.6887 27.8998 15.4126V10.9126C27.8998 9.25566 26.5567 7.91256 24.8998 7.91256H21.3136L23.2524 5.97306C23.4476 5.77776 23.4476 5.46126 23.2523 5.26606L22.5453 4.55906C22.35 4.36376 22.0334 4.36376 21.8381 4.55916L18.1925 8.20566C17.8021 8.59606 17.8022 9.22916 18.1927 9.61956L21.8392 13.2652ZM11.9604 20.56C11.7651 20.3647 11.4486 20.3648 11.2533 20.5601L10.5463 21.267C10.351 21.4623 10.351 21.7789 10.5464 21.9742L12.4854 23.9126H8.89978C8.34748 23.9126 7.89978 23.4648 7.89978 22.9126V18.4126C7.89978 18.1364 7.67588 17.9126 7.39978 17.9126H6.39978C6.12368 17.9126 5.89978 18.1364 5.89978 18.4126V22.9126C5.89978 24.5695 7.24288 25.9126 8.89978 25.9126H12.486L10.5472 27.852C10.352 28.0473 10.352 28.3638 10.5473 28.5591L11.2543 29.266C11.4496 29.4613 11.7662 29.4613 11.9615 29.266L15.6071 25.6195C15.9975 25.229 15.9974 24.596 15.6069 24.2056L11.9604 20.56Z" fill="#2B654D"/>
</svg>
