<svg width="25" height="25" viewBox="0 0 25 25" fill="none" xmlns="http://www.w3.org/2000/svg">
<g clip-path="url(#clip0_121_969)">
<rect x="0.817032" y="0.366455" width="24" height="24" rx="5" fill="#636363"/>
<g clip-path="url(#clip1_121_969)">
<path fill-rule="evenodd" clip-rule="evenodd" d="M7.83858 6.85913C6.83735 7.40465 6.15754 8.46645 6.15754 9.68589V15.0472C6.15754 16.8226 7.59893 18.264 9.37433 18.264H14.7357C16.277 18.264 17.5667 17.1775 17.8798 15.7294C17.4233 15.9782 16.9 16.1195 16.3441 16.1195H10.9827C9.20733 16.1195 7.76593 14.6781 7.76593 12.9027V7.54136C7.76593 7.30733 7.79086 7.07921 7.83858 6.85913Z" fill="#ECECEC"/>
<path fill-rule="evenodd" clip-rule="evenodd" d="M10.4469 11.8303H20.0975C20.3934 11.8303 20.6334 12.0705 20.6334 12.3665C20.6334 12.6624 20.3934 12.9026 20.0975 12.9026H10.4469C10.1511 12.9026 9.91102 12.6624 9.91102 12.3665C9.91102 12.0705 10.1511 11.8303 10.4469 11.8303Z" fill="white"/>
<path fill-rule="evenodd" clip-rule="evenodd" d="M11.2049 12.3664L13.5066 10.0648C13.7159 9.85568 13.7159 9.51577 13.5066 9.30668C13.2975 9.09732 12.9576 9.09732 12.7485 9.30668L10.0678 11.9873C9.85844 12.1967 9.85844 12.5361 10.0678 12.7454L12.7485 15.4261C12.9576 15.6355 13.2975 15.6355 13.5066 15.4261C13.7159 15.217 13.7159 14.8771 13.5066 14.668L11.2049 12.3664Z" fill="white"/>
<path fill-rule="evenodd" clip-rule="evenodd" d="M18.4889 14.511V15.0471C18.4889 17.1185 16.8073 18.8 14.736 18.8H9.37465C7.3033 18.8 5.62172 17.1185 5.62172 15.0471V9.68579C5.62172 7.61444 7.3033 5.93286 9.37465 5.93286H14.736C16.8073 5.93286 18.4889 7.61444 18.4889 9.68579V12.3665C18.4889 12.6624 18.2487 12.9026 17.9528 12.9026C17.6568 12.9026 17.4166 12.6624 17.4166 12.3665V9.68579C17.4166 8.20633 16.2154 7.00513 14.736 7.00513H9.37465C7.89519 7.00513 6.69398 8.20633 6.69398 9.68579V15.0471C6.69398 16.5266 7.89519 17.7278 9.37465 17.7278H14.736C16.2154 17.7278 17.4166 16.5266 17.4166 15.0471V14.511C17.4166 14.215 17.6568 13.9749 17.9528 13.9749C18.2487 13.9749 18.4889 14.215 18.4889 14.511Z" fill="white"/>
</g>
</g>
<defs>
<clipPath id="clip0_121_969">
<rect width="24" height="24" fill="white" transform="translate(0.817032 0.366455)"/>
</clipPath>
<clipPath id="clip1_121_969">
<rect width="17.1562" height="17.1562" fill="white" transform="matrix(-1 0 0 1 21.7057 3.78833)"/>
</clipPath>
</defs>
</svg>
