<svg width="25" height="25" viewBox="0 0 25 25" fill="none" xmlns="http://www.w3.org/2000/svg">
<g clip-path="url(#clip0_121_952)">
<rect x="0.337418" y="0.150146" width="24" height="24" rx="5" fill="#FAA700"/>
<g clip-path="url(#clip1_121_952)">
<path d="M16.0874 6.52515H8.58742C8.20991 6.52738 7.84187 6.64352 7.53145 6.85836C7.22103 7.07321 6.9827 7.37675 6.84763 7.72928C6.71257 8.0818 6.68706 8.46689 6.77445 8.83415C6.86184 9.20141 7.05805 9.53374 7.33742 9.78765V15.9001C7.33742 16.3974 7.53496 16.8743 7.88659 17.226C8.23822 17.5776 8.71514 17.7751 9.21242 17.7751H15.4624C15.9597 17.7751 16.4366 17.5776 16.7882 17.226C17.1399 16.8743 17.3374 16.3974 17.3374 15.9001V9.78765C17.6168 9.53374 17.813 9.20141 17.9004 8.83415C17.9878 8.46689 17.9623 8.0818 17.8272 7.72928C17.6921 7.37675 17.4538 7.07321 17.1434 6.85836C16.833 6.64352 16.4649 6.52738 16.0874 6.52515ZM14.2124 12.8564C14.2124 13.0006 14.1551 13.1389 14.0532 13.2409C13.9512 13.3429 13.8129 13.4001 13.6687 13.4001H11.0062C10.862 13.4001 10.7237 13.3429 10.6217 13.2409C10.5197 13.1389 10.4624 13.0006 10.4624 12.8564V12.6939C10.4624 12.5497 10.5197 12.4114 10.6217 12.3094C10.7237 12.2074 10.862 12.1501 11.0062 12.1501H13.6687C13.8129 12.1501 13.9512 12.2074 14.0532 12.3094C14.1551 12.4114 14.2124 12.5497 14.2124 12.6939V12.8564ZM16.0874 9.02515H8.58742C8.42166 9.02515 8.26269 8.9593 8.14548 8.84209C8.02827 8.72488 7.96242 8.56591 7.96242 8.40015C7.96242 8.23439 8.02827 8.07542 8.14548 7.9582C8.26269 7.84099 8.42166 7.77515 8.58742 7.77515H16.0874C16.2532 7.77515 16.4121 7.84099 16.5294 7.9582C16.6466 8.07542 16.7124 8.23439 16.7124 8.40015C16.7124 8.56591 16.6466 8.72488 16.5294 8.84209C16.4121 8.9593 16.2532 9.02515 16.0874 9.02515Z" fill="white"/>
</g>
</g>
<defs>
<clipPath id="clip0_121_952">
<rect width="24" height="24" fill="white" transform="translate(0.337418 0.150146)"/>
</clipPath>
<clipPath id="clip1_121_952">
<rect width="15" height="15" fill="white" transform="translate(4.83742 4.65015)"/>
</clipPath>
</defs>
</svg>
