<svg width="25" height="25" viewBox="0 0 25 25" fill="none" xmlns="http://www.w3.org/2000/svg">
<rect x="0.338516" y="0.891602" width="24" height="24" rx="5" fill="#00AAFF"/>
<g clip-path="url(#clip0_252_1458)">
<path d="M17.4032 8.9379L12.5222 6.71927L12.5169 6.71794C12.4042 6.66824 12.2728 6.66824 12.1597 6.71794L12.1544 6.71927L7.27339 8.9379C7.11542 9.00978 7.01381 9.16775 7.01381 9.34169V12.8915C7.01381 16.4604 8.83042 17.8182 12.1823 19.0757C12.2795 19.1121 12.39 19.1143 12.4934 19.0757C15.8462 17.8248 17.6632 16.4688 17.6632 12.8915V9.34169C17.6632 9.16775 17.5616 9.00978 17.4032 8.9379ZM16.332 9.91321V12.7719H12.3752V8.29938L16.332 9.91321ZM8.33256 12.8915H12.3752L12.3979 17.5302C9.81273 16.4564 8.43107 14.9881 8.33256 12.8915Z" fill="white"/>
</g>
<defs>
<clipPath id="clip0_252_1458">
<rect width="14.1992" height="14.1992" fill="white" transform="translate(5.23891 5.79199)"/>
</clipPath>
</defs>
</svg>
